<svg xmlns="http://www.w3.org/2000/svg" width="42" height="27.585" viewBox="0 0 42 27.585">
  <g id="console" transform="translate(0 -55.109)">
    <g id="Group_7769" data-name="Group 7769" transform="translate(0 55.109)">
      <g id="Group_7768" data-name="Group 7768" transform="translate(0 0)">
        <path id="Path_13505" data-name="Path 13505" d="M41.978,74.187A39.2,39.2,0,0,0,40.827,66.6a29.113,29.113,0,0,0-2.354-6.382c-3.662-6.434-7.638-5.441-12.4-4.185a34.074,34.074,0,0,1-4.813.942h-.523a34.074,34.074,0,0,1-4.813-.942c-4.76-1.2-8.736-2.249-12.4,4.237a26.669,26.669,0,0,0-2.354,6.382A39.2,39.2,0,0,0,.023,74.239,14.254,14.254,0,0,0,.755,80.2a3.965,3.965,0,0,0,2.511,2.354,5.115,5.115,0,0,0,3.348-.366,24.588,24.588,0,0,0,6.7-4.76c1.622-1.569,4.656-2.354,7.69-2.354s6.068.785,7.69,2.354a24.588,24.588,0,0,0,6.7,4.76,5.472,5.472,0,0,0,3.348.366,3.909,3.909,0,0,0,2.511-2.406A13.987,13.987,0,0,0,41.978,74.187Zm-2.511,5.231a2.074,2.074,0,0,1-1.256,1.308,3.612,3.612,0,0,1-2.145-.262A21.334,21.334,0,0,1,30,76.122c-1.988-1.988-5.493-2.982-9-2.982s-7.01.994-9.05,2.877A21.737,21.737,0,0,1,5.882,80.36a3.245,3.245,0,0,1-2.145.262,2.074,2.074,0,0,1-1.256-1.308,12.37,12.37,0,0,1-.523-5.022,36.084,36.084,0,0,1,1.1-7.219,24.962,24.962,0,0,1,2.2-5.911c2.877-5.179,6.225-4.342,10.2-3.3a30.689,30.689,0,0,0,5.127.994h.785a30.309,30.309,0,0,0,5.179-.994c3.976-.994,7.324-1.883,10.2,3.3a24.122,24.122,0,0,1,2.2,5.911,39.6,39.6,0,0,1,1.1,7.219A12.105,12.105,0,0,1,39.467,79.418Z" transform="translate(0 -55.109)" fill="#fff"/>
      </g>
    </g>
    <g id="Group_7771" data-name="Group 7771" transform="translate(5.411 60.324)">
      <g id="Group_7770" data-name="Group 7770" transform="translate(0 0)">
        <path id="Path_13506" data-name="Path 13506" d="M52.149,98.643a3.179,3.179,0,0,0-1.883-.889,2.977,2.977,0,0,0-.837-1.831l-.052-.052a2.963,2.963,0,0,0-2.145-.889,3.089,3.089,0,0,0-2.145.889,3.041,3.041,0,0,0-.889,1.883,3.116,3.116,0,0,0-1.883.837l-.052.052a2.963,2.963,0,0,0-.889,2.145,3.089,3.089,0,0,0,.889,2.145,2.917,2.917,0,0,0,1.936.889,2.791,2.791,0,0,0,.889,1.883,2.963,2.963,0,0,0,2.145.889,3.089,3.089,0,0,0,2.145-.889,3.179,3.179,0,0,0,.889-1.883,2.791,2.791,0,0,0,1.883-.889,2.963,2.963,0,0,0,.889-2.145A3.089,3.089,0,0,0,52.149,98.643Zm-1.308,2.93a1.065,1.065,0,0,1-.785.314h-.732a.993.993,0,0,0-.994.994v.68a1.1,1.1,0,1,1-2.2,0v-.732a.993.993,0,0,0-.994-.994h-.732A1.073,1.073,0,0,1,43.622,100l.052-.052a1.25,1.25,0,0,1,.732-.262h.732a.993.993,0,0,0,.994-.994v-.732a1.11,1.11,0,0,1,1.883-.785l.052.052a1.25,1.25,0,0,1,.262.732V98.7a.993.993,0,0,0,.994.994h.732a1.11,1.11,0,0,1,.785,1.883Z" transform="translate(-41.373 -94.981)" fill="#fff"/>
      </g>
    </g>
    <g id="Group_7773" data-name="Group 7773" transform="translate(28.272 60.586)">
      <g id="Group_7772" data-name="Group 7772" transform="translate(0 0)">
        <circle id="Ellipse_366" data-name="Ellipse 366" cx="1.831" cy="1.831" r="1.831" fill="#fff"/>
      </g>
    </g>
    <g id="Group_7775" data-name="Group 7775" transform="translate(28.272 68.014)">
      <g id="Group_7774" data-name="Group 7774" transform="translate(0 0)">
        <circle id="Ellipse_367" data-name="Ellipse 367" cx="1.831" cy="1.831" r="1.831" fill="#fff"/>
      </g>
    </g>
    <g id="Group_7777" data-name="Group 7777" transform="translate(24.558 64.3)">
      <g id="Group_7776" data-name="Group 7776" transform="translate(0 0)">
        <circle id="Ellipse_368" data-name="Ellipse 368" cx="1.831" cy="1.831" r="1.831" fill="#fff"/>
      </g>
    </g>
    <g id="Group_7779" data-name="Group 7779" transform="translate(31.986 64.3)">
      <g id="Group_7778" data-name="Group 7778" transform="translate(0 0)">
        <circle id="Ellipse_369" data-name="Ellipse 369" cx="1.831" cy="1.831" r="1.831" fill="#fff"/>
      </g>
    </g>
  </g>
</svg>
