<svg xmlns="http://www.w3.org/2000/svg" width="36.4" height="36.4" viewBox="0 0 36.4 36.4">
  <g id="happy" transform="translate(0.2 0.2)">
    <path id="Path_13500" data-name="Path 13500" d="M32.232,308.237a3.535,3.535,0,0,0,.852-2.3v-.38a3.553,3.553,0,0,0-7.106,0v.38a3.535,3.535,0,0,0,.852,2.3,5.037,5.037,0,0,0-3.065,2.3,5.037,5.037,0,0,0-3.065-2.3,3.535,3.535,0,0,0,.852-2.3v-.38a3.553,3.553,0,0,0-7.106,0v.38a3.535,3.535,0,0,0,.852,2.3,5.037,5.037,0,0,0-3.065,2.3,5.037,5.037,0,0,0-3.065-2.3,3.535,3.535,0,0,0,.852-2.3v-.38a3.553,3.553,0,0,0-7.106,0v.38a3.535,3.535,0,0,0,.852,2.3A5.027,5.027,0,0,0,0,313.1v2.965a.7.7,0,0,0,.7.7H35.3a.7.7,0,0,0,.7-.7V313.1A5.027,5.027,0,0,0,32.232,308.237Zm-4.848-2.685a2.147,2.147,0,0,1,4.293,0v.38a2.147,2.147,0,0,1-4.293,0Zm-11.531,0a2.147,2.147,0,0,1,4.293,0v.38a2.147,2.147,0,0,1-4.293,0Zm-11.531,0a2.147,2.147,0,0,1,4.293,0v.38a2.147,2.147,0,0,1-4.293,0ZM1.406,313.1a3.616,3.616,0,0,1,3.611-3.612h2.9a3.616,3.616,0,0,1,3.611,3.612v2.262H1.406Zm11.531,0a3.616,3.616,0,0,1,3.611-3.612h2.9a3.616,3.616,0,0,1,3.611,3.612v2.262H12.938Zm21.656,2.262H24.469V313.1a3.616,3.616,0,0,1,3.611-3.612h2.9a3.616,3.616,0,0,1,3.611,3.612Zm0,0" transform="translate(0 -280.766)" fill="#fff" stroke="#fff" stroke-width="0.4"/>
    <path id="Path_13501" data-name="Path 13501" d="M30.54,14.1l-.006,3.9a.7.7,0,0,0,1.148.545L35.653,15.3h4.394l2.514,3.146a.7.7,0,0,0,1.12-.028L45.923,15.3h4.655l3.954,3.25a.7.7,0,0,0,1.15-.543V14.092A7.651,7.651,0,0,0,51.552,0h-16.9A7.651,7.651,0,0,0,30.54,14.1Zm4.111-12.7h16.9a6.245,6.245,0,0,1,3.079,11.679.7.7,0,0,0-.356.611v2.825l-3-2.465a.7.7,0,0,0-.446-.16H45.563a.7.7,0,0,0-.571.293l-1.911,2.657L40.935,14.16a.7.7,0,0,0-.549-.264H35.4a.7.7,0,0,0-.445.159l-3.015,2.468,0-2.815a.7.7,0,0,0-.358-.614A6.245,6.245,0,0,1,34.651,1.406Zm0,0" transform="translate(-25.102)" fill="#fff" stroke="#fff" stroke-width="0.4"/>
    <path id="Path_13504" data-name="Path 13504" d="M199.9,61.351a16.961,16.961,0,0,0,1.775,1.424.7.7,0,0,0,.791,0,16.961,16.961,0,0,0,1.775-1.424c1.291-1.194,1.918-2.215,1.918-3.12a2.764,2.764,0,0,0-2.664-2.849,2.546,2.546,0,0,0-1.424.442,2.548,2.548,0,0,0-1.425-.442,2.764,2.764,0,0,0-2.664,2.849C197.977,59.136,198.6,60.157,199.9,61.351Zm.746-4.562a1.175,1.175,0,0,1,.893.428.7.7,0,0,0,1.064,0,1.175,1.175,0,0,1,.893-.428,1.361,1.361,0,0,1,1.258,1.443c0,.787-1.482,2.205-2.683,3.1-1.2-.892-2.682-2.31-2.682-3.1A1.362,1.362,0,0,1,200.641,56.789Zm0,0" transform="translate(-184.056 -51.489)" fill="#fff" stroke="#fff" stroke-width="0.4"/>
  </g>
</svg>
