<svg xmlns="http://www.w3.org/2000/svg" width="14.596" height="14" viewBox="0 0 14.596 14">
  <path id="Path_370" data-name="Path 370" d="M23.548,48.951l3.7,1.956a.522.522,0,0,0,.756-.552L27.3,46.213a.525.525,0,0,1,.15-.464l3-2.934a.525.525,0,0,0-.289-.894l-4.14-.6a.521.521,0,0,1-.392-.287l-1.851-3.769a.52.52,0,0,0-.935,0L20.987,41.03a.521.521,0,0,1-.393.287l-4.14.6a.525.525,0,0,0-.289.894l3,2.934a.526.526,0,0,1,.15.464L18.6,50.355a.522.522,0,0,0,.757.552l3.7-1.956A.52.52,0,0,1,23.548,48.951Z" transform="translate(-16.008 -36.969)" fill="#d4a93a"/>
</svg>
