<svg xmlns="http://www.w3.org/2000/svg" width="50" height="42.513" viewBox="0 0 50 42.513">
  <g id="_" data-name=" " transform="translate(-3347.308 -1638.339)" style="isolation: isolate">
    <g id="Group_6408" data-name="Group 6408" transform="translate(3347.308 1638.339)" style="isolation: isolate">
      <path id="Path_9395" data-name="Path 9395" d="M3369.584,1642.574q-7.218,5.493-10.276,10.432a20.314,20.314,0,0,0-3.059,10.9,8.8,8.8,0,0,1,4.706-1.255,7.7,7.7,0,0,1,5.883,2.432,8.718,8.718,0,0,1,2.274,6.2,8.946,8.946,0,0,1-2.9,6.9,11.026,11.026,0,0,1-7.765,2.667q-11.141,0-11.138-14.746a27.071,27.071,0,0,1,.941-7.295,23.439,23.439,0,0,1,3.059-6.589,37.314,37.314,0,0,1,5.726-6.588,99.6,99.6,0,0,1,8.941-7.295Zm27.724,0q-7.217,5.493-10.275,10.432a20.31,20.31,0,0,0-3.059,10.9,8.8,8.8,0,0,1,4.706-1.255,7.7,7.7,0,0,1,5.883,2.432,8.721,8.721,0,0,1,2.275,6.2,8.946,8.946,0,0,1-2.9,6.9,11.026,11.026,0,0,1-7.765,2.667q-11.14,0-11.138-14.746a27.072,27.072,0,0,1,.941-7.295,23.425,23.425,0,0,1,3.059-6.589,37.314,37.314,0,0,1,5.726-6.588,99.477,99.477,0,0,1,8.942-7.295Z" transform="translate(-3347.308 -1638.339)" fill="#f1dada"/>
    </g>
  </g>
</svg>
