<svg id="yelp_1_" data-name="yelp (1)" xmlns="http://www.w3.org/2000/svg" width="38" height="38" viewBox="0 0 38 38">
  <path id="Path_9412" data-name="Path 9412" d="M38,19A19,19,0,1,1,19,0,19,19,0,0,1,38,19Zm0,0" fill="#5cb7ce"/>
  <path id="Path_9414" data-name="Path 9414" d="M159.854,70.056l-6.162,2.278a.865.865,0,0,0-.407,1.31l6.162,8.728a.865.865,0,0,0,1.572-.5V70.867A.865.865,0,0,0,159.854,70.056Zm0,0" transform="translate(-141.762 -64.806)" fill="#fff"/>
  <path id="Path_9415" data-name="Path 9415" d="M115.312,216.465l-.3,5.484a.865.865,0,0,0,1.078.885l7.089-1.814a.865.865,0,0,0,.2-1.6l-6.788-3.67A.865.865,0,0,0,115.312,216.465Zm0,0" transform="translate(-106.473 -199.641)" fill="#fff"/>
  <path id="Path_9416" data-name="Path 9416" d="M280.245,166.584l3.725-5.955a.865.865,0,0,1,1.4-.09l3.176,3.867a.865.865,0,0,1-.418,1.377l-6.9,2.088A.865.865,0,0,1,280.245,166.584Zm0,0" transform="translate(-259.32 -148.331)" fill="#fff"/>
  <path id="Path_9417" data-name="Path 9417" d="M171.861,304l-4.974,5.369a.865.865,0,0,0,.376,1.413l4.974,1.556a.865.865,0,0,0,1.123-.826v-6.924A.865.865,0,0,0,171.861,304Zm0,0" transform="translate(-154.287 -281.179)" fill="#fff"/>
  <path id="Path_9418" data-name="Path 9418" d="M282.215,290.134l3.822,6.252a.865.865,0,0,0,1.449.041l2.866-4.141a.865.865,0,0,0-.451-1.317l-6.688-2.111A.865.865,0,0,0,282.215,290.134Zm0,0" transform="translate(-261.149 -267.38)" fill="#fff"/>
</svg>
