<svg id="Group_402" data-name="Group 402" xmlns="http://www.w3.org/2000/svg" width="38" height="38" viewBox="0 0 38 38">
  <path id="Path_224" data-name="Path 224" d="M285.345,118.114h0a19,19,0,0,1-19-19h0a19,19,0,0,1,19-19h0a19,19,0,0,1,19,19h0A19,19,0,0,1,285.345,118.114Z" transform="translate(-266.345 -80.114)" fill="#5cb7ce"/>
  <path id="Path_225" data-name="Path 225" d="M294.609,117.269h4.625V105.687h3.227l.344-3.878h-3.571V99.6c0-.914.183-1.276,1.068-1.276h2.5V94.3h-3.2c-3.442,0-4.993,1.516-4.993,4.417v3.092H292.2v3.926h2.406Z" transform="translate(-278.504 -86.784)" fill="#fff"/>
</svg>
