<svg xmlns="http://www.w3.org/2000/svg" width="38.405" height="40.204" viewBox="0 0 38.405 40.204">
  <g id="Layer_2" data-name="Layer 2" transform="translate(-1.96 -1.396)">
    <path id="Path_13507" data-name="Path 13507" d="M32.282,21.969V11.984a2.8,2.8,0,1,0-5.6,0v4.9a2.573,2.573,0,0,0-3.416.822l-2.845,4.275-.6.213a6.7,6.7,0,0,0-4.32,7.6l.221,1.094a.786.786,0,0,0-.352.64v4.563a.8.8,0,0,0,.8.8h9.665a.8.8,0,0,0,.8-.8V31.535a.79.79,0,0,0-.208-.528l5.718-8.595a.8.8,0,0,0,.141-.443Zm-7.245,13.32H16.972V32.335h8.065ZM24.7,30.724v.011H17.34l-.251-1.254a5.089,5.089,0,0,1,3.28-5.776l.856-.3a.8.8,0,0,0,.4-.31l2.99-4.5a1,1,0,0,1,1.365-.275.984.984,0,0,1,.427.64,1,1,0,0,1-.149.75l-.091.138-.906,1.36-2.435,3.659a.8.8,0,1,0,1.331.888l2.907-4.366.528-.8.552-.83a.8.8,0,0,0,.134-.443V11.99a1.2,1.2,0,1,1,2.394,0v9.741Z" transform="translate(7.983 4.61)" fill="#fff" stroke="#fff" stroke-width="0.2"/>
    <path id="Path_13508" data-name="Path 13508" d="M18.84,29.793a6.7,6.7,0,0,0-4.32-7.6l-.6-.213L11.084,17.7a2.573,2.573,0,0,0-3.424-.818v-4.9a2.8,2.8,0,1,0-5.6,0v9.984a.8.8,0,0,0,.134.443l5.718,8.595a.79.79,0,0,0-.208.528v4.545a.8.8,0,0,0,.8.8h9.667a.8.8,0,0,0,.8-.8V31.532a.786.786,0,0,0-.352-.64ZM3.662,21.722V11.984a1.2,1.2,0,1,1,2.4,0v7.323a.8.8,0,0,0,.134.443l3.989,5.993a.8.8,0,0,0,1.331-.888L9.077,21.206l-1-1.5a1,1,0,0,1,.283-1.4,1.016,1.016,0,0,1,.749-.149,1,1,0,0,1,.64.426l2.992,4.5a.8.8,0,0,0,.4.31l.858.3a5.089,5.089,0,0,1,3.278,5.776l-.251,1.254H9.669v-.011Zm13.71,13.563H9.306V32.332h8.065Z" transform="translate(0 4.614)" fill="#fff" stroke="#fff" stroke-width="0.2"/>
    <path id="Path_13509" data-name="Path 13509" d="M28.3,13.855V6.441a.8.8,0,0,0-.48-.734l-9.6-4.141a.8.8,0,0,0-.64,0L7.98,5.707a.8.8,0,0,0-.48.734v7.414a10.256,10.256,0,0,0,3.7,7.9l6.185,5.155a.8.8,0,0,0,1.024,0L24.6,21.759a10.256,10.256,0,0,0,3.7-7.9ZM23.572,20.54,17.9,25.26l-5.673-4.72A8.67,8.67,0,0,1,9.1,13.855V6.975l8.8-3.8,8.8,3.8v6.888A8.665,8.665,0,0,1,23.572,20.54Z" transform="translate(3.264 0)" fill="#fff" stroke="#fff" stroke-width="0.2"/>
    <path id="Path_13510" data-name="Path 13510" d="M18.693,6.734l-4.24,4.235-1.84-1.835a.8.8,0,1,0-1.133,1.133l2.4,2.4a.8.8,0,0,0,1.133,0l4.8-4.8A.8.8,0,0,0,18.68,6.734Z" transform="translate(5.511 3)" fill="#fff" stroke="#fff" stroke-width="0.2"/>
  </g>
</svg>
