<svg xmlns="http://www.w3.org/2000/svg" width="38" height="38" viewBox="0 0 38 38">
  <g id="twitter" transform="translate(-0.001)">
    <circle id="Ellipse_338" data-name="Ellipse 338" cx="19" cy="19" r="19" transform="translate(0.001 0)" fill="#5cb7ce"/>
    <g id="Group_7283" data-name="Group 7283" transform="translate(8.503 11.525)">
      <path id="Path_9423" data-name="Path 9423" d="M47.239,36.158a9.061,9.061,0,0,1-2.609.714,4.554,4.554,0,0,0,2-2.512,9.092,9.092,0,0,1-2.884,1.1A4.545,4.545,0,0,0,36,39.6a12.892,12.892,0,0,1-9.361-4.746,4.547,4.547,0,0,0,1.405,6.064,4.509,4.509,0,0,1-2.057-.569c0,.019,0,.039,0,.058a4.544,4.544,0,0,0,3.643,4.453,4.559,4.559,0,0,1-2.051.079A4.546,4.546,0,0,0,31.827,48.1a9.168,9.168,0,0,1-6.724,1.88A12.915,12.915,0,0,0,44.986,39.1c0-.2,0-.393-.013-.587a9.209,9.209,0,0,0,2.267-2.351Z" transform="translate(-25.103 -34.028)" fill="#fff"/>
    </g>
  </g>
</svg>
